# xmcd
#
# Track frame offsets:
# 150
# 14572
# 27616
# 43650
# 55217
# 71508
# 88518
# 107761
# 132176
# 151684
# 180332
#
# Disc length: 2667 seconds
#
#
# Revision: 2
# Processed by: cddbd v1.5.1PL2 Copyright (c) Steve Scherf et al.
# Submitted via: FreeRIP 2.944 
#
DISCID=890a690b
DTITLE=Alan Haynes - Wishing Well
DYEAR=1994
DGENRE=Bluesrock
TTITLE0=Knocking At Your Door
TTITLE1=Bout To Lose Yo Clown
TTITLE2=Treat Me So Lowdown
TTITLE3=Wishing Well
TTITLE4=I Can Tell
TTITLE5=Knocks Me Out
TTITLE6=Here In The Dark
TTITLE7=My Bleeding
TTITLE8=Mean Old World
TTITLE9=Everynight and Everyday
TTITLE10=Albert's Shuffle
EXTD=
EXTT0=
EXTT1=
EXTT2=
EXTT3=
EXTT4=
EXTT5=
EXTT6=
EXTT7=
EXTT8=
EXTT9=
EXTT10=
PLAYORDER=
